<?xml version="1.0" encoding="UTF-8" standalone="no"?>
<svg
   width="152"
   height="67"
   fill="none"
   version="1.1"
   id="svg2"
   sodipodi:docname="cta-design.svg"
   inkscape:version="1.3.2 (091e20e, 2023-11-25, custom)"
   xmlns:inkscape="http://www.inkscape.org/namespaces/inkscape"
   xmlns:sodipodi="http://sodipodi.sourceforge.net/DTD/sodipodi-0.dtd"
   xmlns="http://www.w3.org/2000/svg"
   xmlns:svg="http://www.w3.org/2000/svg">
  <sodipodi:namedview
     id="namedview2"
     pagecolor="#ffffff"
     bordercolor="#000000"
     borderopacity="0.25"
     inkscape:showpageshadow="2"
     inkscape:pageopacity="0.0"
     inkscape:pagecheckerboard="0"
     inkscape:deskcolor="#d1d1d1"
     inkscape:zoom="11.026316"
     inkscape:cx="76"
     inkscape:cy="33.51074"
     inkscape:window-width="1920"
     inkscape:window-height="1094"
     inkscape:window-x="-11"
     inkscape:window-y="-11"
     inkscape:window-maximized="1"
     inkscape:current-layer="svg2" />
  <path
     fill="url(#a)"
     d="M147.521 50.916c-.49 1.397-.941 4.602-2.612 4.974-2.256.502-2.207-1.974-2.187-3.563.038-3.125 2.111-7.63 1.195-10.508-18.169 15.77-40.599 24.464-64.689 24.532-23.96.068-50.583-7.634-66.415-26.757C5.063 30.234-.091 18.814.817 6.382.895 5.315 1.036.023 3.015.936c1.031.475.784 7.268.929 8.487.752 6.339 2.561 12.186 5.617 17.771 10.412 19.032 32.04 29.724 52.672 32.891 13.667 2.098 28.107 1.172 41.511-2.46 6.919-1.875 13.805-4.453 20.078-7.969 5.292-2.965 14.11-7.637 17.296-13.038-5.355-1.018-11.893 3.17-17.388 2.945-2.911-.119-5.471-2.465-2.596-4.81 2.331-1.9 7.646-1.754 10.522-2.203 3.21-.501 6.417-.895 9.659-1.093 2.378-.146 7.42-1.45 9.313.211 3.347 2.937-1.966 15.628-3.107 19.248.476-1.51-.512 1.46 0 0z"
     id="path1"
     style="fill:#1a1a1a" />
  <defs
     id="defs2">
    <linearGradient
       id="a"
       x1="153.753"
       x2="7.439"
       y1="32.649"
       y2="21.339"
       gradientUnits="userSpaceOnUse">
      <stop
         stop-color="#FF4C00"
         id="stop1" />
      <stop
         offset="1"
         stop-color="#FF4C00"
         stop-opacity="0"
         id="stop2" />
    </linearGradient>
  </defs>
</svg>
